<?xml version="1.0" encoding="UTF-8" standalone="no"?>
<!DOCTYPE svg PUBLIC "-//W3C//DTD SVG 1.1//EN" "http://www.w3.org/Graphics/SVG/1.1/DTD/svg11.dtd">
<svg version="1.1" xmlns="http://www.w3.org/2000/svg" xmlns:xlink="http://www.w3.org/1999/xlink" preserveAspectRatio="xMidYMid meet" viewBox="0 0 640 640" width="640" height="640"><defs><path d="M40.41 560.57C40.41 538.49 58.34 520.57 80.41 520.57C102.49 520.57 120.41 538.49 120.41 560.57C120.41 582.64 102.49 600.57 80.41 600.57C58.34 600.57 40.41 582.64 40.41 560.57Z" id="a3n6ZXRkz"></path><path d="M5.41 560.57C5.41 519.17 39.02 485.57 80.41 485.57C121.81 485.57 155.41 519.17 155.41 560.57C155.41 601.96 121.81 635.57 80.41 635.57C39.02 635.57 5.41 601.96 5.41 560.57Z" id="i1IGDVlDPL"></path><path d="M40.41 560.57C40.41 538.49 58.34 520.57 80.41 520.57C102.49 520.57 120.41 538.49 120.41 560.57C120.41 582.64 102.49 600.57 80.41 600.57C58.34 600.57 40.41 582.64 40.41 560.57Z" id="a5O1ke1yJu"></path><path d="M40.41 560.57L40.41 560.57L40.41 360.57L40.41 360.57L40.41 560.57Z" id="bbmEdrHTot"></path><path d="M5.41 557.47L5.41 557.47L5.41 257.47L5.41 257.47L5.41 557.47Z" id="a2yK1t9PSM"></path><path d="M80.41 635.57L80.41 635.57L280.41 635.57L280.41 635.57L80.41 635.57Z" id="amLxBGlY5"></path><path d="M83.51 600.57L83.51 600.57L383.51 600.57L383.51 600.57L83.51 600.57Z" id="a1FzJ1IygI"></path><path d="" id="b1I6gLmVxt"></path></defs><g><g><g><use xlink:href="#a3n6ZXRkz" opacity="1" fill="#ffffff" fill-opacity="0"></use><g><use xlink:href="#a3n6ZXRkz" opacity="1" fill-opacity="0" stroke="#000000" stroke-width="2" stroke-opacity="1"></use></g></g><g><use xlink:href="#i1IGDVlDPL" opacity="1" fill="#ffffff" fill-opacity="0"></use><g><use xlink:href="#i1IGDVlDPL" opacity="1" fill-opacity="0" stroke="#000000" stroke-width="8" stroke-opacity="1"></use></g></g><g><use xlink:href="#a5O1ke1yJu" opacity="1" fill="#ffffff" fill-opacity="0"></use><g><use xlink:href="#a5O1ke1yJu" opacity="1" fill-opacity="0" stroke="#000000" stroke-width="8" stroke-opacity="1"></use></g></g><g><use xlink:href="#bbmEdrHTot" opacity="1" fill="#440808" fill-opacity="1"></use><g><use xlink:href="#bbmEdrHTot" opacity="1" fill-opacity="0" stroke="#000000" stroke-width="7" stroke-opacity="1"></use></g></g><g><use xlink:href="#a2yK1t9PSM" opacity="1" fill="#000000" fill-opacity="1"></use><g><use xlink:href="#a2yK1t9PSM" opacity="1" fill-opacity="0" stroke="#000000" stroke-width="7" stroke-opacity="1"></use></g></g><g><use xlink:href="#amLxBGlY5" opacity="1" fill="#440808" fill-opacity="1"></use><g><use xlink:href="#amLxBGlY5" opacity="1" fill-opacity="0" stroke="#000000" stroke-width="7" stroke-opacity="1"></use></g></g><g><use xlink:href="#a1FzJ1IygI" opacity="1" fill="#000000" fill-opacity="1"></use><g><use xlink:href="#a1FzJ1IygI" opacity="1" fill-opacity="0" stroke="#000000" stroke-width="7" stroke-opacity="1"></use></g></g><g><g><use xlink:href="#b1I6gLmVxt" opacity="1" fill-opacity="0" stroke="#000000" stroke-width="1" stroke-opacity="1"></use></g></g></g></g></svg>