<?xml version="1.0" encoding="UTF-8" standalone="no"?>
<!DOCTYPE svg PUBLIC "-//W3C//DTD SVG 1.1//EN" "http://www.w3.org/Graphics/SVG/1.1/DTD/svg11.dtd">
<svg version="1.1" xmlns="http://www.w3.org/2000/svg" xmlns:xlink="http://www.w3.org/1999/xlink" preserveAspectRatio="xMidYMid meet" viewBox="0 0 640 640" width="640" height="640"><defs><path d="M354.85 233.4C354.85 255.48 336.92 273.4 314.85 273.4C292.77 273.4 274.85 255.48 274.85 233.4C274.85 211.33 292.77 193.4 314.85 193.4C336.92 193.4 354.85 211.33 354.85 233.4Z" id="aJRslemgC"></path><path d="M389.85 233.4C389.85 274.8 356.24 308.4 314.85 308.4C273.45 308.4 239.85 274.8 239.85 233.4C239.85 192.01 273.45 158.4 314.85 158.4C356.24 158.4 389.85 192.01 389.85 233.4Z" id="e16UWOalQ"></path><path d="M354.85 233.4C354.85 255.48 336.92 273.4 314.85 273.4C292.77 273.4 274.85 255.48 274.85 233.4C274.85 211.33 292.77 193.4 314.85 193.4C336.92 193.4 354.85 211.33 354.85 233.4Z" id="a2DIi8g7I4"></path><path d="M354.85 233.4L354.85 233.4L354.85 433.4L354.85 433.4L354.85 233.4Z" id="bcA3qr6JA"></path><path d="M389.85 236.49L389.85 236.49L389.85 536.49L389.85 536.49L389.85 236.49Z" id="fmT7a6FoI"></path><path d="M314.85 158.4L314.85 158.4L114.85 158.4L114.85 158.4L314.85 158.4Z" id="b2IHZbTUmH"></path><path d="M311.75 193.4L311.75 193.4L11.75 193.4L11.75 193.4L311.75 193.4Z" id="h4ZJwUvdet"></path></defs><g><g><g><use xlink:href="#aJRslemgC" opacity="1" fill="#ffffff" fill-opacity="0"></use><g><use xlink:href="#aJRslemgC" opacity="1" fill-opacity="0" stroke="#000000" stroke-width="2" stroke-opacity="1"></use></g></g><g><use xlink:href="#e16UWOalQ" opacity="1" fill="#ffffff" fill-opacity="0"></use><g><use xlink:href="#e16UWOalQ" opacity="1" fill-opacity="0" stroke="#000000" stroke-width="8" stroke-opacity="1"></use></g></g><g><use xlink:href="#a2DIi8g7I4" opacity="1" fill="#ffffff" fill-opacity="0"></use><g><use xlink:href="#a2DIi8g7I4" opacity="1" fill-opacity="0" stroke="#000000" stroke-width="8" stroke-opacity="1"></use></g></g><g><use xlink:href="#bcA3qr6JA" opacity="1" fill="#440808" fill-opacity="1"></use><g><use xlink:href="#bcA3qr6JA" opacity="1" fill-opacity="0" stroke="#000000" stroke-width="7" stroke-opacity="1"></use></g></g><g><use xlink:href="#fmT7a6FoI" opacity="1" fill="#000000" fill-opacity="1"></use><g><use xlink:href="#fmT7a6FoI" opacity="1" fill-opacity="0" stroke="#000000" stroke-width="7" stroke-opacity="1"></use></g></g><g><use xlink:href="#b2IHZbTUmH" opacity="1" fill="#440808" fill-opacity="1"></use><g><use xlink:href="#b2IHZbTUmH" opacity="1" fill-opacity="0" stroke="#000000" stroke-width="7" stroke-opacity="1"></use></g></g><g><use xlink:href="#h4ZJwUvdet" opacity="1" fill="#000000" fill-opacity="1"></use><g><use xlink:href="#h4ZJwUvdet" opacity="1" fill-opacity="0" stroke="#000000" stroke-width="7" stroke-opacity="1"></use></g></g></g></g></svg>